# xmcd CD database file
#
# Track frame offsets:
#	150
#	16656
#	36089
#	50068
#	73768
#	91824
#	115379
#	137325
#	156795
#	174339
#	191783
#	210793
#	227300
#
# Disc length: 3288 seconds
#
# Revision: 0
# Processed by: cddbd v1.5.2PL0 Copyright (c) Steve Scherf et al.
# Submitted via: CDex 1.51
#
DISCID=9d0cd60d
DTITLE=Sol Y Sombre - La vida es un barco
DYEAR=2011
DGENRE=Jazz
TTITLE0=Cuentos maditerraneos
TTITLE1=Samba de anoranza
TTITLE2=Te extrano I.
TTITLE3=El sol y el viento
TTITLE4=Cruzando todo
TTITLE5=La vida es un barco
TTITLE6=Nubes
TTITLE7=Bossa de amor
TTITLE8=Te extrano II.
TTITLE9=Airecito del sur
TTITLE10=Tengo que irme ya
TTITLE11=Dame mas
TTITLE12=Cuentos meditarraneos remix
EXTD=YEAR: 2011
EXTT0=
EXTT1=
EXTT2=
EXTT3=
EXTT4=
EXTT5=
EXTT6=
EXTT7=
EXTT8=
EXTT9=
EXTT10=
EXTT11=
EXTT12=
PLAYORDER=
